<svg xmlns="http://www.w3.org/2000/svg" version="1.0" width="853.000000pt" height="1280.000000pt" viewBox="0 0 853.000000 1280.000000" preserveAspectRatio="xMidYMid meet">

<g transform="translate(0.000000,1280.000000) scale(0.100000,-0.100000)" fill="#000000" stroke="none">
<path d="M8045 11360 c-10 -11 -26 -22 -37 -26 -14 -4 -18 -13 -16 -32 3 -27 4 -27 92 -30 82 -3 88 -1 75 14 -12 14 -10 19 10 35 13 11 22 21 20 23 -7 7 -99 36 -113 36 -7 0 -21 -9 -31 -20z"/>
<path d="M8298 11318 c-10 -12 -18 -25 -18 -29 0 -4 -10 -10 -22 -12 -22 -4 -21 -4 2 -5 16 -1 37 11 60 33 29 30 31 35 15 35 -11 0 -28 -10 -37 -22z"/>
<path d="M5165 10090 c-8 -13 5 -13 25 0 13 8 13 10 -2 10 -9 0 -20 -4 -23 -10z"/>
<path d="M5210 10095 c0 -6 5 -16 11 -22 18 -18 0 -33 -40 -33 -21 0 -41 -3 -45 -7 -3 -4 -13 -8 -20 -9 -8 -1 -35 -14 -61 -29 -38 -23 -46 -32 -44 -54 2 -19 -9 -38 -41 -71 -26 -28 -44 -40 -47 -32 -3 6 -9 10 -14 6 -5 -3 -12 8 -15 24 -6 28 -8 29 -51 26 -24 -2 -43 0 -41 4 2 4 12 24 22 44 18 34 18 39 3 71 -19 40 -32 52 -67 60 -57 14 -123 -50 -99 -95 6 -13 23 -32 37 -44 24 -19 24 -21 9 -50 -26 -50 -81 -79 -98 -53 -7 11 -9 10 -9 -3 0 -20 -16 -15 -72 22 -21 14 -36 31 -33 38 8 22 -48 12 -110 -21 -50 -27 -64 -41 -85 -82 -14 -27 -26 -52 -28 -55 -2 -2 -7 2 -11 9 -5 8 -14 10 -21 6 -7 -4 -31 -9 -53 -11 -22 -2 -48 -11 -58 -20 -9 -8 -23 -16 -31 -18 -7 -1 -17 -4 -23 -8 -5 -3 -25 -9 -42 -13 -18 -3 -46 -19 -63 -35 -16 -15 -30 -26 -30 -23 0 3 -6 0 -14 -6 -8 -7 -22 -37 -32 -68 -14 -45 -15 -63 -7 -96 7 -25 8 -48 3 -57 -5 -8 -10 -10 -10 -5 0 6 -4 5 -8 -2 -4 -7 -23 -13 -41 -15 -21 -2 -40 -11 -53 -27 -26 -34 -73 -53 -128 -54 -42 0 -42 0 -7 -4 42 -5 41 -4 26 -36 -8 -19 -17 -23 -42 -20 -37 3 -28 -2 26 -16 22 -5 35 -6 32 0 -4 5 2 9 12 10 10 0 13 3 6 5 -7 3 -9 12 -6 20 7 19 57 18 96 -3 l32 -18 -45 -6 c-45 -6 -45 -6 -7 -7 20 -1 37 -4 37 -6 0 -14 -14 -36 -22 -36 -5 0 -7 4 -3 10 6 9 -73 35 -82 27 -2 -3 9 -8 26 -12 17 -4 34 -11 37 -17 4 -7 2 -8 -5 -4 -6 4 -42 7 -80 7 -91 0 -160 -31 -227 -102 -44 -47 -51 -60 -53 -100 -1 -31 3 -50 14 -59 8 -7 15 -19 15 -26 0 -19 -48 -110 -65 -124 -8 -6 -17 -33 -20 -58 -6 -47 -33 -112 -46 -112 -4 0 -9 5 -11 12 -3 8 -7 6 -11 -5 -4 -10 -2 -16 6 -14 7 1 13 -11 15 -27 3 -21 0 -26 -10 -20 -7 4 -10 4 -6 -1 4 -4 1 -22 -6 -40 -9 -21 -13 -67 -12 -131 2 -81 5 -105 21 -127 11 -14 23 -27 27 -27 4 0 18 -4 32 -10 28 -10 26 -35 -2 -45 -10 -3 -26 -24 -36 -47 -23 -48 -33 -113 -16 -103 10 6 15 -40 11 -98 -1 -15 5 -41 13 -59 27 -53 20 -74 -21 -69 -20 3 -15 -5 15 -25 26 -17 27 -17 12 2 -14 18 -13 18 10 -1 14 -11 27 -22 30 -24 3 -2 -3 -1 -12 2 -10 4 -18 2 -18 -3 0 -5 8 -14 18 -20 15 -10 15 -11 -3 -4 -11 4 -32 9 -48 12 -15 2 -33 13 -41 23 -7 10 -16 16 -19 12 -15 -14 -5 -34 31 -59 26 -18 30 -25 15 -21 -15 3 -20 1 -16 -9 3 -8 0 -14 -7 -14 -10 0 -10 -3 0 -15 8 -10 29 -14 64 -13 28 1 67 0 86 -1 l35 -2 -30 -14 c-16 -7 -25 -14 -19 -14 5 -1 18 -7 28 -14 16 -12 14 -13 -20 -11 -21 2 -44 6 -52 9 -7 3 -10 0 -7 -6 8 -12 -38 -3 -79 17 -35 17 -47 10 -20 -11 16 -13 16 -14 2 -9 -10 3 -18 1 -18 -4 0 -19 50 -50 90 -57 22 -4 40 -11 40 -15 0 -5 9 -7 19 -5 28 5 41 -16 36 -58 -3 -26 1 -47 15 -69 24 -40 25 -52 4 -44 -8 3 -12 2 -9 -4 3 -6 13 -10 21 -10 8 0 14 -9 14 -20 0 -11 7 -23 15 -26 14 -6 31 -41 27 -56 -1 -5 2 -8 7 -8 5 0 7 -18 4 -40 -4 -30 -2 -40 8 -40 8 -1 26 -19 41 -40 15 -22 34 -40 42 -40 8 0 16 -6 19 -14 5 -13 21 -19 122 -48 54 -16 73 -30 94 -69 18 -34 97 -103 137 -119 19 -8 20 -13 13 -62 -12 -84 -46 -182 -82 -234 -34 -49 -122 -118 -138 -108 -5 3 -12 -2 -15 -11 -16 -40 84 -101 198 -121 99 -18 381 -20 483 -5 39 6 97 11 130 12 44 1 52 3 30 8 -17 3 -30 12 -30 21 0 20 43 32 68 18 17 -9 19 -8 13 7 -5 15 -4 16 8 6 11 -9 20 -10 35 -2 11 6 40 11 66 11 43 0 45 -1 35 -21 -7 -11 -9 -23 -7 -26 8 -7 179 15 188 24 5 5 -12 9 -36 10 -25 1 -45 -3 -45 -8 0 -6 -4 -8 -9 -5 -4 3 -22 1 -40 -4 -17 -5 -31 -5 -31 -1 0 5 14 11 31 15 17 3 52 16 77 28 26 12 58 25 72 28 18 4 29 16 38 45 19 58 23 95 9 95 -7 0 -17 11 -23 24 -10 21 -8 25 13 35 13 6 35 11 49 11 21 0 24 3 18 25 -4 15 -2 25 5 25 15 0 161 144 161 159 0 8 12 24 28 37 17 15 22 24 12 24 -9 0 -5 6 10 17 14 9 39 29 55 44 22 20 51 32 108 43 95 20 227 84 227 111 0 5 7 17 17 27 13 15 14 22 4 40 l-11 23 6 -22 c3 -13 1 -23 -5 -23 -6 0 -11 4 -11 10 0 5 -15 31 -34 57 -18 27 -37 58 -40 69 -4 12 -16 24 -26 27 -23 6 -26 -3 -7 -22 10 -10 9 -11 -5 -6 -10 4 -18 14 -18 22 0 11 -7 14 -25 11 -20 -4 -24 -2 -20 11 3 10 -4 22 -17 31 -12 8 -33 26 -46 38 -22 21 -28 22 -48 11 -17 -9 -27 -9 -37 -1 -10 9 -16 9 -25 0 -9 -9 -17 -7 -32 7 -11 10 -23 16 -26 12 -6 -5 -30 11 -70 49 -18 17 -21 27 -15 55 6 28 3 36 -13 44 -10 6 -22 17 -26 25 -4 8 -12 25 -18 37 -7 13 -12 30 -12 38 0 8 -5 15 -11 15 -6 0 -9 9 -6 20 3 11 1 20 -3 20 -5 0 -7 34 -5 75 2 43 0 75 -6 75 -5 0 -9 11 -9 25 0 16 -6 25 -15 25 -22 0 -18 27 5 33 17 4 20 12 19 45 -2 32 -6 38 -21 34 -10 -2 -18 1 -18 7 0 6 5 11 11 11 5 0 7 5 4 10 -4 6 -11 8 -16 5 -5 -4 -12 1 -15 9 -3 9 -10 14 -15 11 -10 -7 -28 26 -22 43 7 18 -8 15 -23 -5 -12 -17 -13 -16 -14 5 0 23 -33 79 -55 94 -19 14 -35 8 -35 -12 0 -13 -7 -20 -17 -20 -26 1 -56 27 -47 41 5 9 11 7 21 -6 12 -18 13 -18 13 1 0 11 5 25 12 32 9 9 9 12 -3 12 -9 0 -19 -3 -23 -7 -4 -5 -19 -8 -32 -8 -19 -1 -23 3 -18 15 4 8 7 23 8 33 0 17 30 24 40 9 3 -5 18 -10 33 -11 15 -1 37 -2 48 -3 53 -4 76 2 73 20 -3 15 7 17 75 20 42 2 77 -1 77 -6 0 -5 37 -9 81 -10 47 0 84 -5 88 -11 18 -28 122 -17 198 21 19 9 27 8 43 -7 15 -14 20 -15 20 -4 1 18 35 59 49 59 6 0 8 7 5 15 -4 8 1 17 9 21 8 3 21 25 28 50 7 24 17 44 21 44 4 0 8 16 8 35 0 19 -4 35 -9 35 -5 0 -7 10 -3 23 5 19 3 20 -10 10 -17 -15 -29 -7 -21 13 3 9 0 14 -7 12 -8 -2 -21 18 -32 47 -33 86 -33 85 -4 85 15 0 26 -6 26 -13 0 -9 10 -12 31 -9 28 4 30 2 27 -19 -2 -15 2 -23 10 -22 6 2 12 -4 12 -12 0 -8 8 -15 18 -15 9 0 30 -7 46 -15 31 -16 56 -20 56 -7 0 4 -16 22 -35 41 -41 38 -44 51 -12 51 15 0 35 -14 55 -39 18 -22 32 -43 32 -47 0 -4 10 -21 23 -38 24 -32 47 -80 47 -96 0 -6 -19 -10 -43 -10 -24 0 -48 -5 -55 -12 -9 -9 -12 -9 -12 2 0 7 -16 -8 -36 -33 -20 -26 -40 -47 -44 -47 -4 0 -10 -8 -14 -17 -24 -67 -25 -77 -11 -110 15 -35 15 -35 65 -28 l50 7 -6 -30 c-5 -25 -1 -33 25 -53 39 -29 46 -51 27 -88 -23 -43 -11 -86 29 -111 40 -25 66 -25 96 -1 18 14 23 28 22 57 -1 22 0 33 3 26 9 -19 24 -4 24 23 0 28 59 71 111 82 21 4 26 8 18 14 -8 4 -20 3 -28 -4 -12 -10 -13 -8 -6 13 4 14 11 27 14 30 4 3 15 16 24 30 11 16 17 19 18 10 1 -8 4 -4 8 10 4 14 17 27 31 31 16 5 19 7 8 8 -21 1 -23 12 -6 29 8 8 8 15 -2 27 -19 22 -6 30 18 10 12 -11 18 -25 14 -37 -4 -17 -2 -18 24 -7 16 7 43 27 59 44 25 25 28 34 18 43 -7 7 -9 20 -6 29 4 10 2 14 -4 10 -13 -8 -36 50 -27 65 4 6 0 14 -7 19 -7 4 -10 11 -7 15 11 10 68 -20 68 -36 0 -8 10 -21 21 -29 20 -12 21 -11 14 6 -4 10 -10 26 -12 36 -3 9 -9 17 -14 17 -5 0 -9 8 -9 18 0 26 -45 95 -64 98 -9 1 -14 -2 -11 -6 3 -5 1 -11 -4 -14 -5 -3 -8 12 -7 34 1 27 -4 42 -14 45 -12 5 -12 8 -1 14 11 7 9 10 -7 15 -20 7 -19 9 16 45 20 20 45 40 55 44 16 6 16 9 2 43 -14 34 -14 37 9 67 17 23 23 41 20 62 -4 25 -3 26 5 10 5 -11 27 -42 48 -70 47 -61 91 -73 118 -31 18 27 13 100 -7 112 -7 5 -8 -2 -3 -22 28 -102 -18 -123 -96 -45 -54 53 -61 82 -26 100 l22 11 -22 -6 c-13 -3 -23 -1 -23 4 0 5 15 13 34 16 19 4 37 13 40 22 5 12 2 13 -17 3 -20 -11 -21 -11 -8 5 13 16 12 17 -15 11 -16 -4 -42 -11 -58 -16 -49 -15 -54 -12 -58 41 -2 31 1 50 8 50 6 0 21 11 35 26 25 27 32 90 14 128 -6 14 -5 17 3 12 8 -4 10 -2 6 7 -8 21 -49 40 -83 39 -34 -1 -66 -15 -100 -46 l-23 -21 7 25 c7 24 7 24 -9 5 -15 -19 -15 -19 -16 8 0 23 4 27 18 23 11 -4 22 2 30 14 9 15 9 20 1 20 -7 0 -4 9 6 20 12 14 20 41 23 80 5 64 -5 76 -32 39 -8 -12 -19 -18 -25 -15 -7 4 -8 1 -5 -8 8 -20 9 -20 28 0 9 8 16 11 16 5 0 -6 -8 -15 -19 -20 -14 -8 -22 -6 -35 8 -9 9 -16 23 -16 29 0 6 -12 12 -27 14 -14 2 -29 9 -31 17 -3 10 0 12 12 8 14 -6 15 -4 5 16 -8 13 -14 17 -17 9 -7 -22 -20 -12 -17 14 3 27 -18 53 -70 85 -38 24 -89 24 -144 -1 -42 -19 -61 -19 -61 1 0 12 47 31 78 31 12 0 25 4 28 9 10 16 -46 9 -87 -10 -22 -11 -46 -18 -53 -15 -8 3 -16 25 -20 50 -3 24 -15 63 -27 87 -12 23 -22 44 -22 47 -1 3 -21 22 -46 43 -45 36 -71 47 -71 27 0 -5 7 -10 15 -10 11 0 12 -5 6 -23 -6 -16 -4 -40 9 -77 10 -30 16 -58 14 -61 -2 -4 4 -9 13 -11 16 -3 16 -4 2 -10 -9 -4 -29 0 -44 8 -23 12 -29 12 -42 -1 -18 -18 -29 -19 -36 -2 -5 13 18 152 29 168 3 5 -4 9 -14 9 -22 0 -43 -27 -62 -82 -13 -34 -16 -36 -48 -32 -50 6 -87 27 -86 48 2 16 1 16 -16 1 -18 -16 -19 -15 -30 23 -6 23 -21 49 -33 59 -12 10 -32 34 -45 53 -12 19 -22 30 -22 25z m-469 -34 c-17 -11 3 -25 24 -17 22 8 18 0 -12 -30 -23 -21 -24 -24 -5 -12 19 11 24 11 32 -2 8 -12 10 -12 10 -1 0 8 2 12 5 9 3 -3 3 -13 -1 -22 -5 -12 -16 -16 -37 -14 -18 2 -32 -2 -34 -9 -3 -7 0 -13 6 -13 6 0 11 -7 11 -16 0 -14 -3 -14 -16 -3 -10 8 -13 21 -9 37 5 20 4 22 -9 10 -7 -7 -11 -17 -8 -22 3 -5 0 -6 -7 -2 -6 4 -9 11 -6 16 3 5 1 11 -5 15 -5 3 -10 16 -9 28 1 20 2 20 9 -3 7 -23 8 -23 9 -3 1 12 10 24 21 28 11 3 19 9 19 13 -3 15 2 22 14 22 9 0 8 -3 -2 -9z m521 -45 c45 -33 69 -196 32 -210 -24 -9 -25 -6 -29 69 -2 37 -6 69 -9 73 -6 6 -10 -21 -6 -52 1 -12 -2 -16 -11 -11 -9 6 -10 1 -5 -21 4 -16 4 -26 1 -22 -4 4 -11 22 -15 40 l-8 33 -1 -34 c-1 -40 -7 -36 -32 19 -16 35 -16 41 -3 55 20 20 31 19 38 -2 3 -10 4 -6 2 10 -3 29 8 37 18 12 3 -8 10 -15 16 -15 13 0 3 43 -11 48 -11 4 -12 22 -1 22 4 0 15 -7 24 -14z m-72 -10 c0 -3 -4 -8 -10 -11 -5 -3 -10 -1 -10 4 0 6 5 11 10 11 6 0 10 -2 10 -4z m-33 -27 c2 -16 -1 -19 -9 -11 -5 5 -7 15 -4 21 10 15 12 14 13 -10z m374 -26 c-8 -15 -10 -15 -11 -2 0 17 10 32 18 25 2 -3 -1 -13 -7 -23z m-471 1 c0 -8 -5 -12 -10 -9 -6 4 -8 11 -5 16 9 14 15 11 15 -7z m70 -4 c0 -5 -4 -10 -10 -10 -5 0 -10 5 -10 10 0 6 5 10 10 10 6 0 10 -4 10 -10z m-330 -3 c0 -2 -10 -12 -21 -23 -22 -19 -22 -19 -8 4 12 19 29 30 29 19z m350 -52 c0 -1 -9 -5 -19 -8 -13 -3 -18 -1 -14 9 4 10 33 10 33 -1z m537 -20 c4 -4 2 -5 -4 -1 -9 5 -13 1 -13 -11 0 -15 -2 -16 -10 -3 -5 8 -10 18 -10 22 0 9 28 4 37 -7z m-523 -21 c3 -9 11 -12 18 -8 10 6 11 4 1 -7 -7 -7 -13 -20 -13 -29 0 -9 -9 -25 -20 -35 -17 -15 -20 -16 -15 -3 4 10 -2 22 -16 32 -23 16 -23 16 -4 31 11 8 24 15 28 15 5 0 5 5 2 10 -3 6 -2 10 3 10 6 0 13 -7 16 -16z m350 -9 c3 -8 1 -15 -4 -15 -6 0 -10 7 -10 15 0 8 2 15 4 15 2 0 6 -7 10 -15z m196 -5 c0 -11 -4 -20 -10 -20 -5 0 -10 9 -10 20 0 11 5 20 10 20 6 0 10 -9 10 -20z m-928 -22 c-7 -7 -12 -8 -12 -2 0 14 12 26 19 19 2 -3 -1 -11 -7 -17z m-387 -6 c-38 -24 -58 -48 -50 -62 3 -5 -1 -10 -9 -10 -28 0 2 60 38 76 45 19 56 17 21 -4z m1342 -24 c-3 -7 -5 -2 -5 12 0 14 2 19 5 13 2 -7 2 -19 0 -25z m-1077 -23 c0 -48 -17 -52 -29 -9 -12 42 -7 56 14 47 9 -3 15 -18 15 -38z m137 29 c-16 -9 -31 -13 -34 -10 -3 3 5 10 18 15 37 15 47 12 16 -5z m276 10 c7 -7 -9 -42 -29 -61 -9 -10 -13 -8 -17 7 -3 11 1 21 9 24 8 3 14 9 13 13 -4 22 10 31 24 17z m-596 -60 c3 -8 0 -21 -6 -27 -9 -9 -11 -8 -5 7 5 13 4 17 -4 12 -7 -4 -12 -14 -12 -22 0 -14 -2 -13 -16 0 -20 21 -25 20 -17 -1 5 -14 3 -15 -6 -7 -10 9 -10 17 -2 33 14 25 59 29 68 5z m838 6 c-3 -5 -10 -10 -16 -10 -5 0 -9 5 -9 10 0 6 7 10 16 10 8 0 12 -4 9 -10z m-771 -44 c18 -36 18 -39 1 -54 -12 -11 -15 -12 -10 -3 6 11 4 13 -9 8 -9 -4 -14 -3 -11 2 3 5 -4 12 -15 16 -23 7 -24 14 -8 50 15 33 28 28 52 -19z m353 27 c-9 -9 -19 -14 -23 -11 -10 10 6 28 24 28 15 0 15 -1 -1 -17z m1053 2 c0 -8 -14 -17 -34 -21 -52 -9 -66 1 -26 19 44 20 60 21 60 2z m-1100 -8 c0 -8 -7 -14 -15 -14 -16 0 -19 9 -8 20 11 11 23 8 23 -6z m714 -11 c-3 -9 -13 -16 -22 -16 -13 0 -12 3 4 19 22 21 27 21 18 -3z m476 2 c11 -12 20 -29 20 -39 0 -17 -28 -34 -38 -24 -3 3 1 5 9 5 10 1 9 3 -3 11 -9 5 -15 16 -12 23 3 8 -5 21 -18 30 l-22 16 21 0 c12 0 31 -10 43 -22z m-1860 -8 c-24 -15 -37 -11 -16 5 11 8 22 12 25 9 3 -3 -1 -9 -9 -14z m710 -20 c8 -5 11 -10 5 -10 -5 0 -17 5 -25 10 -8 5 -10 10 -5 10 6 0 17 -5 25 -10z m489 -16 c-15 -18 -22 -13 -13 10 3 9 10 13 16 10 5 -3 4 -12 -3 -20z m-1262 -20 c-3 -3 -12 -4 -19 -1 -8 3 -5 6 6 6 11 1 17 -2 13 -5z m928 -14 c-8 -13 1 -13 28 1 21 10 21 10 2 -6 -10 -8 -24 -14 -29 -12 -14 5 -20 27 -6 27 6 0 8 -4 5 -10z m-1022 -50 c-3 -12 -23 -31 -44 -43 -21 -12 -44 -32 -50 -44 -14 -26 -29 -30 -29 -8 0 8 5 15 10 15 6 0 10 9 10 19 0 18 60 72 60 54 0 -4 5 0 11 10 14 24 38 22 32 -3z m532 10 c3 -6 -1 -7 -9 -4 -18 7 -21 14 -7 14 6 0 13 -4 16 -10z m-360 -20 c-3 -5 -1 -10 5 -10 6 0 8 -5 5 -10 -3 -6 4 -14 17 -19 16 -7 18 -10 6 -10 -9 -1 -24 -4 -34 -8 -13 -5 -16 -3 -11 10 3 9 2 19 -3 22 -11 7 -2 35 12 35 5 0 6 -4 3 -10z m1965 -37 c0 -17 -5 -16 -24 3 -23 22 -20 37 4 22 11 -7 20 -18 20 -25z m-2016 -22 c-6 -6 -24 19 -24 34 1 6 7 1 15 -9 8 -11 12 -22 9 -25z m1909 -21 c-2 -2 -8 2 -14 10 -7 13 -10 13 -18 1 -6 -9 -11 -10 -15 -2 -4 6 -3 11 2 11 5 0 13 10 16 23 6 21 7 21 20 -8 7 -16 11 -32 9 -35z m-2043 35 c0 -21 -33 -88 -49 -101 -11 -8 -18 -8 -27 0 -14 13 4 55 39 94 24 25 37 28 37 7z m192 -37 c-6 -6 -15 -8 -19 -4 -4 4 -1 11 7 16 19 12 27 3 12 -12z m2028 -3 c-7 -9 -15 -13 -18 -10 -3 2 1 11 8 20 7 9 15 13 18 10 3 -2 -1 -11 -8 -20z m-32 -17 c2 -12 -3 -16 -17 -15 -12 1 -21 5 -21 9 0 4 -7 8 -15 8 -8 0 -15 5 -15 11 0 18 64 6 68 -13z m-48 -28 c0 -5 -4 -10 -10 -10 -5 0 -10 5 -10 10 0 6 5 10 10 10 6 0 10 -4 10 -10z m216 -95 c21 -33 12 -84 -23 -121 l-26 -28 -15 22 c-8 12 -21 22 -29 22 -8 0 -11 5 -8 10 3 6 2 10 -4 10 -27 0 9 86 42 100 35 14 46 12 63 -15z m-185 -18 c-6 -8 -7 -18 -3 -22 4 -5 2 -5 -5 -1 -7 3 -27 -9 -47 -30 -20 -21 -39 -34 -43 -31 -3 4 3 18 15 30 12 13 21 25 20 28 -2 2 -1 3 0 2 2 -1 18 7 35 18 38 22 43 24 28 6z m-2338 -14 c-7 -2 -21 -2 -30 0 -10 3 -4 5 12 5 17 0 24 -2 18 -5z m2217 -3 c0 -5 -2 -10 -4 -10 -3 0 -8 5 -11 10 -3 6 -1 10 4 10 6 0 11 -4 11 -10z m-2120 -37 c0 -13 -3 -13 -15 -3 -8 7 -15 16 -15 21 0 5 7 6 15 3 8 -4 15 -13 15 -21z m-103 -20 c3 -8 -6 -10 -29 -6 -55 8 -68 23 -19 20 24 -1 46 -7 48 -14z m63 -68 c0 -2 -7 -5 -15 -9 -9 -3 -15 0 -15 9 0 9 6 12 15 9 8 -4 15 -7 15 -9z m2360 -57 c25 -27 25 -38 0 -38 -11 0 -20 7 -20 16 0 8 -4 12 -10 9 -12 -7 -12 -3 -4 19 8 20 9 20 34 -6z m-2511 -4 c2 -2 -12 -4 -32 -4 -41 0 -59 -16 -25 -23 13 -2 4 -3 -20 -2 -23 1 -45 5 -49 9 -12 12 -33 6 -58 -16 -19 -16 -22 -24 -13 -30 21 -13 -9 -10 -35 3 -12 7 -19 8 -15 4 4 -4 -3 -16 -15 -27 l-22 -20 25 16 c40 26 44 18 11 -19 -17 -20 -31 -39 -31 -43 0 -4 12 7 26 23 14 17 23 22 20 13 -3 -12 -1 -15 10 -11 16 6 19 23 3 23 -5 0 -7 5 -3 11 4 8 9 7 15 -2 6 -10 11 -11 17 -3 9 15 72 47 79 41 6 -7 -39 -32 -50 -29 -5 1 -6 -2 -3 -7 3 -5 -10 -19 -28 -32 -19 -13 -33 -27 -30 -30 2 -4 0 -10 -6 -14 -5 -3 -10 -10 -10 -16 0 -5 9 -4 19 3 11 7 18 15 15 19 -6 10 22 30 30 21 4 -4 6 -1 4 7 -1 7 3 16 11 19 8 3 11 0 7 -7 -4 -6 9 -4 28 6 20 9 34 18 32 21 -2 2 -14 -2 -26 -8 -12 -6 -24 -9 -27 -7 -2 3 5 11 18 17 29 16 179 23 179 9 0 -6 -9 -8 -21 -4 -14 5 -19 3 -15 -4 4 -6 -4 -10 -21 -10 -50 -1 -72 -5 -70 -14 1 -5 -4 -12 -12 -15 -9 -3 -11 0 -6 8 5 9 4 11 -4 6 -6 -4 -9 -11 -6 -16 4 -7 -46 -47 -53 -42 -1 1 -16 -5 -33 -14 -17 -8 -37 -13 -45 -10 -8 3 -14 1 -14 -5 0 -6 -4 -7 -10 -4 -6 4 -2 15 10 27 11 12 16 26 13 31 -4 6 -11 1 -16 -12 -9 -18 -16 -21 -41 -15 -39 8 -39 8 -31 35 17 52 108 127 185 153 15 5 132 -4 139 -10z m71 -18 c0 -3 -4 -8 -10 -11 -5 -3 -10 -1 -10 4 0 6 5 11 10 11 6 0 10 -2 10 -4z m-57 -13 c-7 -2 -19 -2 -25 0 -7 3 -2 5 12 5 14 0 19 -2 13 -5z m2583 -79 c37 -18 52 -48 34 -69 -18 -22 -38 -18 -42 8 -2 14 -11 23 -25 25 -26 4 -47 27 -38 42 9 14 32 13 71 -6z m-366 -14 c0 -5 -4 -10 -9 -10 -6 0 -13 5 -16 10 -3 6 1 10 9 10 9 0 16 -4 16 -10z m299 -167 c-1 -32 -5 -62 -8 -68 -10 -18 -18 40 -8 59 7 14 5 21 -8 28 -15 9 -15 11 2 24 10 7 19 14 21 14 2 0 2 -26 1 -57z m31 27 c0 -5 -2 -10 -4 -10 -3 0 -8 5 -11 10 -3 6 -1 10 4 10 6 0 11 -4 11 -10z m-619 -74 c-6 -7 -8 -16 -4 -19 3 -4 1 -7 -5 -7 -18 0 -24 19 -10 34 16 17 33 9 19 -8z m553 5 c4 -5 -3 -7 -14 -4 -23 6 -26 13 -6 13 8 0 17 -4 20 -9z m-2814 -74 c0 -18 5 -38 12 -45 9 -9 8 -12 -4 -12 -26 0 -40 26 -33 60 9 40 25 38 25 -3z m2410 3 c0 -5 -4 -10 -10 -10 -5 0 -10 5 -10 10 0 6 5 10 10 10 6 0 10 -4 10 -10z m-2420 -70 c25 0 35 -17 20 -35 -17 -21 -50 -19 -50 3 0 9 -3 28 -6 42 -5 21 -4 22 6 8 6 -10 20 -18 30 -18z m80 -9 c0 -5 -7 -12 -16 -15 -24 -9 -28 -7 -14 9 14 17 30 20 30 6z m-150 -63 c0 -5 -4 -8 -10 -8 -5 0 -10 10 -10 23 0 18 2 19 10 7 5 -8 10 -18 10 -22z m3014 -14 c3 -8 2 -12 -4 -9 -6 3 -10 10 -10 16 0 14 7 11 14 -7z m-1099 -126 c2 -41 1 -45 -17 -40 -12 3 -15 7 -9 12 7 3 -14 15 -46 25 -71 23 -87 35 -47 35 16 0 40 6 54 13 41 22 61 8 65 -45z m1061 15 c1 -7 12 -26 24 -42 25 -36 15 -69 -21 -66 -21 1 -37 33 -53 104 -6 25 -6 25 9 7 16 -21 19 -15 16 29 l-2 20 13 -20 c7 -11 13 -25 14 -32z m-1019 21 c-3 -3 -12 -4 -19 -1 -8 3 -5 6 6 6 11 1 17 -2 13 -5z m913 -10 c0 -12 -14 -34 -22 -34 -5 0 -6 5 -3 10 3 6 -2 10 -12 10 -13 0 -15 3 -5 8 12 8 42 12 42 6z m-30 -55 c0 -14 -17 -10 -23 5 -4 10 -1 13 9 9 7 -3 14 -9 14 -14z m-875 -19 c3 -5 1 -10 -4 -10 -6 0 -11 5 -11 10 0 6 2 10 4 10 3 0 8 -4 11 -10z m838 -19 c7 -27 -3 -34 -19 -13 -17 22 -17 32 0 32 7 0 16 -9 19 -19z m82 -23 c5 -18 3 -28 -4 -28 -6 0 -11 14 -11 31 0 20 -4 28 -12 23 -7 -5 -8 -3 -3 5 9 16 22 3 30 -31z m-910 12 c-3 -5 -12 -10 -18 -10 -7 0 -6 4 3 10 19 12 23 12 15 0z m-351 -81 c-2 -4 -14 -5 -25 -2 -21 6 -21 7 -4 20 15 10 21 10 26 1 4 -7 6 -15 3 -19z m946 -9 c8 -5 11 -10 5 -10 -5 0 -17 5 -25 10 -8 5 -10 10 -5 10 6 0 17 -5 25 -10z m200 -20 c0 -5 -4 -10 -10 -10 -5 0 -10 5 -10 10 0 6 5 10 10 10 6 0 10 -4 10 -10z m-220 -25 c14 -16 10 -18 -14 -9 -9 3 -16 10 -16 15 0 14 16 11 30 -6z m230 -59 c0 -3 -4 -8 -10 -11 -5 -3 -10 -1 -10 4 0 6 5 11 10 11 6 0 10 -2 10 -4z m-1169 -51 c5 4 9 1 9 -4 0 -6 -7 -11 -15 -11 -9 0 -15 9 -14 23 1 17 2 18 6 4 2 -9 9 -15 14 -12z m1069 -116 c0 -12 -10 -23 -26 -29 -37 -15 -54 -12 -54 8 0 14 2 15 10 2 9 -14 11 -13 14 10 1 13 39 39 48 34 5 -3 8 -14 8 -25z m-2700 -36 c0 -19 -3 -24 -10 -17 -6 6 -8 18 -4 27 9 24 14 21 14 -10z m10 -423 c0 -5 -10 -10 -22 -9 -22 0 -22 1 -3 9 11 5 21 9 23 9 1 1 2 -3 2 -9z m45 0 c3 -5 1 -10 -4 -10 -6 0 -11 5 -11 10 0 6 2 10 4 10 3 0 8 -4 11 -10z m600 -570 c-3 -5 -11 -10 -16 -10 -6 0 -7 5 -4 10 3 6 11 10 16 10 6 0 7 -4 4 -10z m-74 -27 c5 -64 5 -86 2 -75 -3 6 -9 10 -13 7 -5 -3 -16 8 -25 25 -12 22 -12 30 -3 28 7 -2 12 3 11 10 -2 6 4 12 12 12 8 0 15 -3 16 -7z m86 -9 c-3 -3 -12 -4 -19 -1 -8 3 -5 6 6 6 11 1 17 -2 13 -5z m-31 -30 c-4 -11 -2 -15 8 -11 14 6 26 -12 26 -38 0 -7 -8 -15 -19 -18 -14 -3 -17 0 -14 14 3 11 0 19 -6 19 -12 0 -15 32 -4 43 11 12 15 8 9 -9z m1031 -400 c-3 -3 -12 -4 -19 -1 -8 3 -5 6 6 6 11 1 17 -2 13 -5z"/>
<path d="M3678 9043 c7 -3 16 -2 19 1 4 3 -2 6 -13 5 -11 0 -14 -3 -6 -6z"/>
<path d="M6311 8374 c0 -11 3 -14 6 -6 3 7 2 16 -1 19 -3 4 -6 -2 -5 -13z"/>
<path d="M3870 9421 c0 -6 4 -13 10 -16 6 -3 7 1 4 9 -7 18 -14 21 -14 7z"/>
<path d="M3568 9273 c7 -3 16 -2 19 1 4 3 -2 6 -13 5 -11 0 -14 -3 -6 -6z"/>
<path d="M3483 9228 c-37 -42 -37 -54 0 -19 21 19 37 36 37 38 0 10 -19 0 -37 -19z"/>
<path d="M3538 9213 c7 -3 16 -2 19 1 4 3 -2 6 -13 5 -11 0 -14 -3 -6 -6z"/>
<path d="M6604 9189 c16 -10 18 -20 12 -93 -4 -60 -3 -75 5 -57 5 14 9 54 7 90 -3 57 -6 66 -23 69 -19 3 -19 2 -1 -9z"/>
<path d="M3436 9153 c-6 -14 -5 -15 5 -6 7 7 10 15 7 18 -3 3 -9 -2 -12 -12z"/>
<path d="M6487 9069 c7 -7 15 -10 18 -7 3 3 -2 9 -12 12 -14 6 -15 5 -6 -5z"/>
<path d="M3280 8935 c0 -5 5 -17 10 -25 5 -8 10 -10 10 -5 0 6 -5 17 -10 25 -5 8 -10 11 -10 5z"/>
<path d="M3332 8855 c21 -22 39 -37 42 -34 2 2 -14 19 -37 38 l-42 34 37 -38z"/>
<path d="M5570 8255 c7 -8 20 -14 29 -14 13 1 13 2 -1 6 -10 2 -18 9 -18 14 0 5 -5 9 -11 9 -8 0 -8 -5 1 -15z"/>
<path d="M5789 8165 c20 -36 90 -110 91 -95 0 19 -6 26 -59 75 -24 22 -38 31 -32 20z"/>
<path d="M5602 8150 c-28 -23 -28 -26 8 -38 36 -13 44 -3 27 31 -13 24 -13 24 -35 7z"/>
<path d="M5418 8143 c-30 -15 -35 -27 -17 -38 7 -5 5 -12 -5 -24 -24 -26 -35 -65 -24 -85 6 -11 6 -21 0 -29 -7 -8 -6 -18 4 -31 8 -11 14 -26 14 -33 0 -19 -18 -16 -23 5 -4 16 -5 15 -6 -1 -1 -15 -9 -18 -43 -17 -88 4 -91 1 -114 -109 -13 -62 -11 -101 5 -101 4 0 26 -18 50 -39 33 -30 44 -47 46 -76 5 -50 15 -58 72 -59 26 0 50 -4 53 -7 5 -7 214 -49 242 -49 9 0 26 8 39 19 l23 18 -29 26 c-17 15 -35 27 -41 27 -18 0 -94 59 -95 73 0 14 -94 77 -115 77 -8 0 -14 5 -14 10 0 13 5 13 91 -7 84 -18 189 -72 220 -111 15 -20 19 -35 14 -59 -4 -25 -2 -33 8 -33 16 0 47 56 42 74 -2 6 -6 24 -10 40 -6 27 -7 27 -20 10 -14 -18 -14 -18 -15 3 0 15 -12 31 -35 45 -19 13 -33 28 -31 34 3 7 -16 22 -40 34 -24 13 -50 30 -57 38 -10 13 -8 14 13 9 85 -19 146 -57 165 -100 8 -18 14 -24 15 -15 0 25 -20 68 -52 109 -33 44 -35 53 -8 46 11 -3 20 -2 20 3 0 4 18 10 39 14 26 4 42 12 46 25 13 43 -21 65 -66 40 -18 -9 -17 -6 5 30 29 46 31 51 15 51 -7 0 -17 6 -23 13 -6 7 -37 23 -68 36 -54 21 -59 22 -103 7 -25 -9 -50 -16 -56 -16 -12 0 -99 80 -99 91 0 5 18 12 40 15 42 7 51 18 24 28 -25 10 -67 5 -96 -11z m149 -369 c-3 -3 -12 -4 -19 -1 -8 3 -5 6 6 6 11 1 17 -2 13 -5z m-222 -244 c3 -5 1 -10 -4 -10 -6 0 -11 5 -11 10 0 6 2 10 4 10 3 0 8 -4 11 -10z"/>
<path d="M3290 7810 c0 -5 5 -10 11 -10 5 0 7 5 4 10 -3 6 -8 10 -11 10 -2 0 -4 -4 -4 -10z"/>
<path d="M5226 7511 c-4 -7 -5 -15 -2 -18 9 -9 19 4 14 18 -4 11 -6 11 -12 0z"/>
<path d="M3393 7361 c0 -11 5 -18 9 -15 4 3 5 11 1 19 -7 21 -12 19 -10 -4z"/>
<path d="M5680 7174 c0 -8 5 -12 10 -9 6 4 8 11 5 16 -9 14 -15 11 -15 -7z"/>
<path d="M6866 6903 c-4 -12 -15 -30 -24 -41 -14 -15 -19 -40 -20 -95 -2 -75 -2 -75 27 -85 38 -14 41 -6 41 116 0 98 -11 145 -24 105z"/>
<path d="M5603 6543 c0 -15 -3 -37 -7 -48 -5 -14 1 -10 18 10 28 32 30 58 5 63 -12 2 -16 -5 -16 -25z"/>
<path d="M6128 5343 c7 -3 16 -2 19 1 4 3 -2 6 -13 5 -11 0 -14 -3 -6 -6z"/>
<path d="M5935 5297 c-60 -17 -105 -32 -100 -34 6 -1 64 13 130 32 66 18 111 34 100 34 -11 -1 -69 -15 -130 -32z"/>
<path d="M5798 5253 c7 -3 16 -2 19 1 4 3 -2 6 -13 5 -11 0 -14 -3 -6 -6z"/>
<path d="M6724 5184 c-32 -29 -33 -32 -8 -15 29 19 62 51 52 51 -3 0 -22 -16 -44 -36z"/>
<path d="M5580 5203 c0 -5 12 -20 28 -34 l27 -24 -25 30 c-14 17 -26 32 -27 34 -2 2 -3 0 -3 -6z"/>
<path d="M6390 5196 c0 -3 9 -10 20 -16 11 -6 20 -8 20 -6 0 3 -9 10 -20 16 -11 6 -20 8 -20 6z"/>
<path d="M5770 5141 c-14 -4 -20 -10 -14 -14 6 -3 20 0 30 8 21 16 20 16 -16 6z"/>
<path d="M6831 5126 c-12 -13 -19 -26 -14 -29 19 -11 83 -25 78 -16 -4 5 -14 9 -23 9 -9 0 -24 4 -32 10 -12 7 -12 12 4 29 27 29 14 26 -13 -3z"/>
<path d="M6145 5073 c-37 -25 -40 -26 -67 -10 -27 16 -30 15 -74 -13 -25 -16 -51 -27 -58 -24 -7 3 -13 -2 -13 -11 0 -20 3 -19 66 15 53 29 54 29 80 11 l26 -19 44 39 c51 46 50 49 -4 12z"/>
<path d="M6173 5054 l-28 -25 33 22 c17 13 32 24 32 26 0 8 -11 1 -37 -23z"/>
<path d="M5627 5026 c-32 -18 -59 -36 -60 -38 -3 -8 107 -198 115 -198 4 0 20 16 35 36 97 125 112 146 86 119 -15 -17 -49 -55 -75 -84 l-46 -54 -47 93 c-25 50 -45 93 -43 94 2 1 24 15 51 30 26 15 47 29 47 31 0 7 0 7 -63 -29z"/>
<path d="M6206 5018 c-21 -29 -20 -38 2 -37 11 0 12 2 4 6 -10 4 -10 10 3 29 20 30 12 32 -9 2z"/>
<path d="M6068 5008 c27 -17 36 -18 45 -8 9 10 9 11 -1 6 -7 -4 -24 -1 -37 8 -13 9 -28 16 -32 16 -4 0 7 -10 25 -22z"/>
<path d="M5751 5001 c-8 -5 -9 -11 -3 -15 5 -3 12 1 16 9 6 17 6 18 -13 6z"/>
<path d="M5951 4964 c0 -11 3 -14 6 -6 3 7 2 16 -1 19 -3 4 -6 -2 -5 -13z"/>
<path d="M5681 4954 c0 -11 3 -14 6 -6 3 7 2 16 -1 19 -3 4 -6 -2 -5 -13z"/>
<path d="M6705 4924 c-15 -25 -24 -48 -22 -51 3 -3 17 18 31 46 33 63 27 67 -9 5z"/>
<path d="M6682 4940 c-12 -10 -19 -21 -15 -23 5 -3 16 6 26 19 21 29 19 30 -11 4z"/>
<path d="M5901 4929 c0 -15 7 -33 17 -40 15 -12 16 -12 5 1 -6 8 -13 26 -16 40 l-4 25 -2 -26z"/>
<path d="M6380 4931 c0 -10 39 -46 43 -40 2 2 -7 14 -20 26 -13 12 -23 19 -23 14z"/>
<path d="M5690 4921 c0 -5 5 -13 10 -16 6 -3 10 -2 10 4 0 5 -4 13 -10 16 -5 3 -10 2 -10 -4z"/>
<path d="M6459 4873 c-13 -17 -13 -17 6 -3 11 8 22 16 24 17 2 2 0 3 -6 3 -6 0 -17 -8 -24 -17z"/>
<path d="M6732 4858 c-15 -15 -15 -28 0 -28 6 0 8 3 5 7 -4 3 -2 12 4 20 14 16 7 17 -9 1z"/>
<path d="M5782 4840 c0 -14 2 -19 5 -12 2 6 2 18 0 25 -3 6 -5 1 -5 -13z"/>
<path d="M6790 4756 c0 -2 8 -10 18 -17 15 -13 16 -12 3 4 -13 16 -21 21 -21 13z"/>
<path d="M6900 3574 c0 -82 4 -155 9 -162 4 -7 6 58 4 144 -2 87 -6 160 -8 163 -3 2 -5 -63 -5 -145z"/>
<path d="M2901 3410 c0 -3 6 -27 14 -55 11 -40 14 -44 14 -20 0 17 -6 41 -14 55 -8 14 -14 23 -14 20z"/>
<path d="M6912 3335 c0 -16 2 -22 5 -12 2 9 2 23 0 30 -3 6 -5 -1 -5 -18z"/>
<path d="M6903 3165 c0 -22 2 -30 4 -17 2 12 2 30 0 40 -3 9 -5 -1 -4 -23z"/>
<path d="M7985 2772 c-69 -13 -281 -94 -403 -153 -129 -64 -151 -78 -235 -159 -100 -95 -176 -195 -187 -246 -5 -20 -2 -40 6 -55 17 -30 20 -244 3 -234 -6 4 -15 17 -20 29 -8 18 -9 17 -4 -7 3 -17 2 -26 -4 -23 -5 3 -7 -4 -4 -16 3 -17 2 -19 -5 -10 -6 10 -10 -2 -11 -39 0 -30 -6 -56 -13 -60 -10 -6 -10 -15 0 -42 15 -42 17 -80 2 -57 -8 13 -10 12 -10 -2 0 -10 -4 -18 -9 -18 -6 0 -3 -12 5 -27 16 -33 18 -53 4 -53 -5 0 -10 -5 -10 -11 0 -5 5 -7 10 -4 14 8 13 -18 -1 -32 -9 -9 -7 -29 5 -80 9 -37 23 -117 31 -178 22 -168 32 -226 44 -272 9 -33 8 -50 -3 -85 -35 -108 -50 -213 -37 -268 8 -35 7 -46 -3 -52 -11 -6 -11 -17 -1 -61 7 -29 18 -69 25 -90 12 -32 12 -40 -5 -71 -15 -28 -17 -40 -8 -58 10 -23 3 -53 -17 -68 -17 -13 -19 -45 -5 -66 25 -38 23 -108 -3 -143 -44 -60 -42 -61 167 -61 l188 0 6 43 c4 28 2 45 -7 52 -22 18 -27 45 -8 43 41 -3 52 2 52 27 0 14 5 25 10 25 23 0 8 18 -20 23 -16 4 -30 13 -30 20 0 8 -9 22 -20 32 -34 31 -22 37 20 10 46 -29 54 -18 13 17 -23 19 -28 31 -28 66 1 24 -5 48 -12 54 -15 12 -17 38 -4 38 6 0 6 14 0 35 -8 29 -6 40 16 74 14 23 25 47 25 55 0 8 4 17 10 21 5 3 6 13 3 21 -5 12 1 15 23 14 48 -3 50 -1 19 26 -21 18 -26 27 -17 33 13 8 14 89 1 106 -8 10 -26 94 -33 155 -3 20 -10 48 -15 64 -6 15 -11 47 -11 71 0 41 2 44 38 56 35 12 36 13 12 19 l-25 7 28 8 c29 8 37 25 12 25 -8 0 -15 5 -15 10 0 6 16 10 35 10 42 0 43 6 10 42 -25 27 -32 48 -17 48 4 0 6 20 4 45 -3 28 0 45 7 45 6 0 8 7 5 15 -8 19 42 69 59 58 20 -13 65 -11 71 3 6 16 -12 141 -24 169 -13 29 -19 54 -25 110 -13 112 -16 129 -26 141 -6 7 -8 18 -4 24 3 5 0 10 -7 10 -10 0 -9 3 2 10 9 6 14 21 12 42 -2 18 4 42 12 53 12 17 12 23 0 46 -27 54 -13 200 22 230 11 9 11 15 -1 33 -8 11 -13 35 -11 51 3 27 7 31 52 38 27 5 71 16 98 24 77 23 119 11 166 -48 21 -27 49 -76 62 -109 18 -48 27 -60 41 -56 9 2 21 -3 27 -12 29 -51 -4 103 -51 233 -15 43 -22 88 -24 163 -1 57 -4 104 -6 106 -2 1 -13 1 -24 -2z m-542 -287 c-3 -9 2 -22 13 -30 11 -7 16 -17 12 -21 -4 -4 -3 -13 3 -21 6 -7 7 -13 2 -13 -4 0 -7 -17 -5 -38 3 -26 -1 -42 -12 -51 -13 -11 -16 -11 -17 0 0 8 -4 3 -8 -11 -4 -14 -7 -61 -5 -105 3 -103 -9 -155 -35 -148 -22 6 -36 -11 -24 -29 4 -7 6 -23 5 -35 -2 -12 1 -31 7 -41 8 -16 7 -21 -5 -26 -8 -3 -12 -2 -9 3 3 5 0 13 -6 17 -8 5 -10 -9 -6 -47 3 -30 4 -46 1 -36 -7 23 -24 22 -24 -3 0 -11 -6 -20 -14 -20 -9 0 -12 7 -9 20 3 10 -2 26 -11 35 -15 15 -16 15 -17 -2 0 -10 -3 -13 -5 -6 -3 7 0 22 6 34 7 12 8 19 2 15 -5 -3 -12 4 -15 16 -4 12 -2 25 3 28 6 4 7 24 2 51 -4 24 -4 71 0 104 4 33 5 74 2 91 -3 18 -1 35 5 38 6 4 11 22 11 40 0 36 26 96 47 109 7 4 13 13 13 20 0 18 37 38 56 30 12 -4 15 -2 12 8 -3 8 2 19 11 26 21 16 21 16 14 -2z m-79 -711 c3 -9 6 -27 6 -41 0 -20 -2 -22 -13 -11 -14 14 -37 53 -37 62 0 14 38 5 44 -10z m-10 -70 c3 -8 3 -27 0 -41 -6 -24 -7 -24 -20 13 -17 48 -17 44 0 44 8 0 17 -7 20 -16z m101 -1463 c3 -5 1 -12 -4 -15 -5 -3 -11 1 -15 9 -6 16 9 21 19 6z"/>
<path d="M7384 2096 c-8 -22 -2 -27 16 -16 12 7 12 12 3 21 -10 10 -14 9 -19 -5z"/>
<path d="M3124 2578 c2 -20 7 -47 11 -58 4 -12 1 -27 -5 -35 -7 -8 -9 -15 -4 -15 4 0 0 -6 -11 -13 -17 -13 -17 -18 8 -133 15 -65 28 -137 29 -159 3 -36 5 -30 25 50 12 50 24 123 26 163 5 76 7 69 -65 202 l-19 35 5 -37z"/>
<path d="M6962 2540 c0 -14 2 -19 5 -12 2 6 2 18 0 25 -3 6 -5 1 -5 -13z"/>
<path d="M6986 2410 c3 -25 12 -52 19 -60 7 -8 15 -22 18 -30 5 -13 5 -13 6 0 0 8 -11 42 -24 75 l-25 60 6 -45z"/>
<path d="M3212 2350 c0 -14 2 -19 5 -12 2 6 2 18 0 25 -3 6 -5 1 -5 -13z"/>
<path d="M3120 2015 c0 -8 -8 -15 -18 -15 -22 0 -79 -27 -88 -41 -3 -5 10 -25 30 -43 23 -20 36 -41 36 -57 0 -20 -2 -21 -11 -9 -9 13 -10 13 -6 -1 7 -22 -12 -100 -30 -121 -10 -12 -13 -29 -8 -61 11 -72 17 -72 -265 8 -327 93 -494 122 -755 129 -93 2 -150 2 -125 -1 48 -5 69 -16 51 -27 -6 -4 -11 -2 -11 4 0 6 -5 8 -10 5 -6 -4 -7 -12 -3 -18 12 -19 3 -61 -15 -74 -11 -9 -12 -13 -3 -13 7 0 11 -6 8 -14 -8 -19 37 -63 73 -71 16 -4 30 -10 30 -14 0 -4 17 -13 39 -19 21 -7 43 -18 49 -25 8 -9 5 -80 -10 -247 -17 -197 -20 -295 -18 -605 2 -203 3 -441 2 -527 l-1 -158 384 0 c263 0 386 3 390 11 4 6 8 74 9 152 1 86 8 171 18 217 14 64 37 220 54 365 3 22 12 87 20 145 8 58 21 160 29 227 8 67 28 199 44 295 16 95 39 229 50 297 11 69 24 127 29 130 15 11 51 191 38 191 -3 0 -6 -7 -6 -15z"/>
<path d="M8070 980 c0 -11 -10 -46 -21 -78 -12 -31 -27 -93 -35 -137 -27 -159 -33 -191 -47 -265 -18 -91 -32 -216 -29 -249 2 -13 -3 -31 -11 -40 -8 -9 -17 -48 -20 -91 -4 -41 -9 -85 -13 -97 -5 -19 -2 -23 18 -23 28 0 68 61 68 104 0 15 6 29 14 32 12 5 36 53 36 72 0 8 -40 -46 -40 -55 0 -4 -9 -19 -20 -33 -20 -25 -20 -25 -20 -3 0 13 14 53 32 90 18 38 31 74 30 82 -2 7 1 10 7 6 6 -3 11 0 11 9 0 8 4 16 8 18 5 2 36 50 69 108 33 58 74 128 91 155 17 28 45 77 63 110 17 33 40 72 51 88 11 15 23 41 28 57 l9 30 -32 -17 c-32 -16 -81 -31 -127 -38 -14 -2 -29 -11 -35 -21 -52 -88 -122 -181 -130 -172 -9 8 20 62 62 117 42 56 42 69 2 63 l-32 -5 6 39 c13 83 19 164 13 164 -3 0 -6 -9 -6 -20z"/>
<path d="M1575 868 c-30 -16 -30 -17 -9 -33 36 -27 64 -14 64 31 0 17 -27 18 -55 2z"/>
<path d="M8468 853 c-9 -10 -21 -29 -28 -43 -7 -13 -23 -33 -36 -42 -30 -24 -64 -80 -64 -106 0 -11 -7 -22 -15 -26 -8 -3 -23 -22 -32 -43 -10 -21 -23 -45 -31 -54 -7 -9 -14 -26 -15 -38 -1 -12 -6 -20 -12 -18 -5 3 -11 -9 -12 -24 -1 -16 -13 -44 -27 -62 -13 -17 -24 -39 -24 -47 1 -8 0 -28 -1 -45 -1 -24 -3 -27 -12 -15 -8 12 -9 8 -6 -15 2 -16 2 -24 -1 -16 -5 17 -52 -34 -52 -56 0 -8 -4 -12 -10 -8 -16 10 -41 -40 -35 -71 4 -21 3 -23 -3 -10 -7 17 -12 13 -35 -27 -35 -60 -35 -67 6 -57 17 5 100 21 184 35 84 14 159 28 168 31 13 6 45 53 45 68 0 3 -10 3 -22 0 -13 -3 -47 -7 -76 -10 l-54 -6 4 29 c3 26 7 28 45 29 45 1 75 18 67 38 -3 7 2 19 11 26 15 13 16 11 11 -21 -3 -19 -1 -41 4 -49 9 -13 10 -13 10 0 0 12 2 12 9 2 6 -10 13 -2 25 27 9 23 16 48 16 57 0 8 5 12 10 9 6 -4 15 7 21 24 6 17 15 31 20 31 5 0 9 112 9 260 l0 260 -23 0 c-13 0 -31 -8 -39 -17z m-22 -545 c-8 -5 -7 -11 1 -19 8 -8 9 -18 4 -28 -9 -17 -11 -23 -11 -43 0 -9 -4 -8 -10 2 -8 12 -10 12 -10 1 0 -8 -2 -12 -5 -9 -3 3 -1 18 5 34 9 24 8 31 -6 41 -15 11 -15 13 -2 18 10 4 14 14 10 28 -5 22 -5 22 15 2 13 -13 16 -22 9 -27z m-236 28 c0 -3 -4 -8 -10 -11 -5 -3 -10 -1 -10 4 0 6 5 11 10 11 6 0 10 -2 10 -4z m27 -48 c-3 -7 -5 -2 -5 12 0 14 2 19 5 13 2 -7 2 -19 0 -25z"/>
<path d="M8371 836 c-21 -23 -114 -207 -107 -213 7 -7 66 81 66 100 0 10 14 30 30 44 17 13 30 33 30 43 0 10 7 20 15 24 8 3 15 9 15 14 0 16 -30 9 -49 -12z"/>
<path d="M8226 573 c-6 -14 -5 -15 5 -6 7 7 10 15 7 18 -3 3 -9 -2 -12 -12z"/>
<path d="M8507 259 c-3 -13 -1 -19 6 -16 15 5 22 37 9 37 -5 0 -12 -9 -15 -21z"/>
<path d="M8485 180 c-11 -4 -23 -6 -26 -4 -3 2 -16 -14 -28 -36 l-21 -39 37 5 c47 6 83 29 83 53 0 23 -18 31 -45 21z"/>
<path d="M8505 59 c-10 -15 3 -25 16 -12 7 7 7 13 1 17 -6 3 -14 1 -17 -5z"/>
<path d="M8384 36 c-4 -12 -11 -24 -16 -27 -6 -4 2 -6 16 -6 14 -1 23 3 20 8 -3 5 0 9 5 9 6 0 11 8 11 18 0 25 -28 24 -36 -2z"/>
<path d="M8282 33 c-18 -7 -30 -18 -27 -23 8 -13 75 -13 75 -1 0 5 2 16 5 24 7 17 -11 17 -53 0z"/>
<path d="M8208 3 c7 -3 16 -2 19 1 4 3 -2 6 -13 5 -11 0 -14 -3 -6 -6z"/>
</g>
</svg>